<!--?xml version="1.0" standalone="no"?-->
              <svg id="sw-js-blob-svg" viewBox="0 0 100 100" xmlns="http://www.w3.org/2000/svg" version="1.1">
                    <defs> 
                        <linearGradient id="sw-gradient" x1="0" x2="1" y1="1" y2="0">
                            <stop id="stop1" stop-color="rgba(248, 117, 55, 1)" offset="0%"></stop>
                            <stop id="stop2" stop-color="rgba(31, 233.112, 251, 1)" offset="100%"></stop>
                        </linearGradient>
                    </defs>
                <path fill="url(#sw-gradient)" d="M23,-29.1C27.8,-23.3,28.4,-14.2,29.9,-5.4C31.3,3.5,33.6,12.1,30.4,17.6C27.3,23.2,18.8,25.7,10.8,27.8C2.8,30,-4.7,31.8,-12.6,30.6C-20.5,29.5,-28.7,25.4,-33.7,18.6C-38.8,11.7,-40.6,2.1,-38.9,-6.7C-37.2,-15.6,-31.9,-23.7,-24.8,-29C-17.8,-34.4,-8.9,-37.1,0.1,-37.2C9.1,-37.3,18.1,-34.8,23,-29.1Z" width="100%" height="100%" transform="translate(50 50)" stroke-width="0" style="transition: all 0.3s ease 0s;"></path>
              </svg>